<svg xmlns="http://www.w3.org/2000/svg" viewBox="0 0 272.26 330.61"><defs><style>.cls-1{fill:none;stroke:#459bff;stroke-linecap:round;stroke-linejoin:round;stroke-width:13.42px;}</style></defs><g id="Layer_2" data-name="Layer 2"><g id="Layer_1-2" data-name="Layer 1"><path class="cls-1" d="M47.42,69.06v79.68M93.87,31.44v117.3m49.55-95v95m46.46,54.13H142.8a55.67,55.67,0,0,0-42.27,19.36m107.64-36.55-18.29,17.19V55.06c0-12.71-9.46-24.47-23.23-24.47a23.23,23.23,0,0,0-23.23,23.22v-21c0-13.35-9.91-26.1-24.77-26.1A24.79,24.79,0,0,0,93.87,31.48V30.06c0-12.59-9.51-23.3-23.22-23.3A23.23,23.23,0,0,0,47.42,30V69.06A20.37,20.37,0,0,0,27.06,48.7c-12.21,0-20.35,10-20.35,21.18V237.06c0,47.59,38.35,86.84,86,86.84,46.53,0,74.61-16.19,100.19-44.55l69.27-75.23a12.76,12.76,0,0,0-.39-17.7h0A38.58,38.58,0,0,0,208.17,185.68Z"/></g></g></svg>