<svg xmlns="http://www.w3.org/2000/svg" viewBox="0 0 260.77 280.3"><defs><style>.cls-1{fill:none;stroke:#ff55c4;stroke-linecap:round;stroke-linejoin:round;stroke-width:10.54px;}</style></defs><g id="Layer_2" data-name="Layer 2"><g id="Layer_1-2" data-name="Layer 1"><path class="cls-1" d="M34.5,141.61h0A29.23,29.23,0,0,1,5.27,112.38V74.14A29.23,29.23,0,0,1,34.5,44.92h0A29.22,29.22,0,0,1,63.72,74.14h0v38.24a29.22,29.22,0,0,1-29.21,29.23Zm221,5a53.4,53.4,0,0,0-53.43-53.35H74.18a10.46,10.46,0,0,0-10.46,10.46h0v6.54a46.34,46.34,0,0,0,46.34,46.34h63.46M125.94,36.72V93.26M242.17,111.4V34.33a26.67,26.67,0,1,0-53.33-1c0,.35,0,.69,0,1v2.39a31.45,31.45,0,0,0-62.9,0v-.34a31.11,31.11,0,0,0-62.22,0V74.14a29.23,29.23,0,0,0-58.45,0V168a107,107,0,0,0,107,107h14.79A128.4,128.4,0,0,0,255.45,146.65,53.17,53.17,0,0,0,242.17,111.4ZM188.84,36.72V93.26M172.79,156.6h0a51.49,51.49,0,0,0-51.49,51.49v15.22"/></g></g></svg>