<svg xmlns="http://www.w3.org/2000/svg" viewBox="0 0 263.19 409.72"><defs><style>.cls-1{fill:none;stroke:#ffa41a;stroke-linecap:round;stroke-linejoin:round;stroke-width:13.33px;}</style></defs><g id="Layer_2" data-name="Layer 2"><g id="Layer_1-2" data-name="Layer 1"><path class="cls-1" d="M105.39,352.33v-14.8a50,50,0,0,1,50-50h0M232.25,6.94a28.2,28.2,0,0,0-31.84,24L178,185.05,155.64,31.35A28.19,28.19,0,1,0,99.77,38.9c0,.1,0,.2,0,.3l16.38,116.52a30,30,0,0,0-49.55,22.74v27.07a30,30,0,0,0-59.95-2.45c0,.82,0,1.64,0,2.45v81.28c0,59.87,45.18,112.15,104.93,116,61.55,4,119.89-42.48,119.89-115.34,0-96.21,0-64.06,24.74-248.75a28.18,28.18,0,0,0-24-31.82ZM36.69,175.55h0a30,30,0,0,0-30,30v36.6a30,30,0,0,0,30,30h0a30,30,0,0,0,30-30v-36.6A30,30,0,0,0,36.69,175.55Zm90,53.44V178.46a30,30,0,0,0-30-30h0a30,30,0,0,0-30,30V229m164.87,58.5h0A58.51,58.51,0,0,0,173,229H82a15.5,15.5,0,0,0-15.5,15.5h0a43,43,0,0,0,43,43h46"/></g></g></svg>